<?xml version="1.0" encoding="utf-8"?>
<!-- Generator: Adobe Illustrator 22.0.1, SVG Export Plug-In . SVG Version: 6.00 Build 0)  -->
<svg version="1.1" id="Layer_1" xmlns="http://www.w3.org/2000/svg" xmlns:xlink="http://www.w3.org/1999/xlink" x="0px" y="0px"
	 viewBox="0 0 138 138" style="enable-background:new 0 0 138 138;" xml:space="preserve">
<style type="text/css">
	.st0{fill:#282828;}
	.st1{opacity:0.75;}
	.st2{fill:#00FFFF;}
</style>
<title>Asset 17</title>
<g id="Layer_2_1_">
	<g id="Layer_1-2">
		<path class="st0" d="M69.5,106.5c-19.3,0-35-15.7-35-35s15.7-35,35-35s35,15.7,35,35S88.8,106.5,69.5,106.5L69.5,106.5z
			 M69.5,40.5c-17.1,0-31,13.9-31,31s13.9,31,31,31s31-13.9,31-31S86.6,40.5,69.5,40.5z"/>
		<g class="st1">
			<circle class="st2" cx="112.2" cy="26.2" r="5.2"/>
		</g>
		<circle class="st0" cx="112.2" cy="26.2" r="5.2"/>
		<g class="st1">
			<path class="st2" d="M117.2,0H20.8C9.3,0,0,9.3,0,20.8v96.3C0,128.7,9.3,138,20.8,138h96.3c11.5,0,20.8-9.3,20.8-20.8V20.8
				C138,9.3,128.7,0,117.2,0z M134,117.2c0,9.3-7.5,16.8-16.8,16.8H20.8C11.5,134,4,126.5,4,117.2V20.8C4,11.5,11.5,4,20.8,4h96.3
				c9.3,0,16.8,7.5,16.8,16.8V117.2z"/>
		</g>
		<path class="st0" d="M117.2,0H20.8C9.3,0,0,9.3,0,20.8v96.3C0,128.7,9.3,138,20.8,138h96.3c11.5,0,20.8-9.3,20.8-20.8V20.8
			C138,9.3,128.7,0,117.2,0z M134,117.2c0,9.3-7.5,16.8-16.8,16.8H20.8C11.5,134,4,126.5,4,117.2V20.8C4,11.5,11.5,4,20.8,4h96.3
			c9.3,0,16.8,7.5,16.8,16.8V117.2z"/>
	</g>
</g>
</svg>
