<?xml version="1.0" encoding="utf-8"?>
<!-- Generator: Adobe Illustrator 22.0.1, SVG Export Plug-In . SVG Version: 6.00 Build 0)  -->
<svg version="1.1" id="Layer_1" xmlns="http://www.w3.org/2000/svg" xmlns:xlink="http://www.w3.org/1999/xlink" x="0px" y="0px"
	 viewBox="0 0 192.6 138" style="enable-background:new 0 0 192.6 138;" xml:space="preserve">
<style type="text/css">
	.st0{fill:#282828;}
</style>
<title>Asset 19</title>
<g id="Layer_2_1_">
	<g id="Layer_1-2">
		<path class="st0" d="M178.6,0H14C10.1,0,6.4,1.6,3.8,4.4C1.4,7,0,10.4,0,14v110c0,7.7,6.3,14,14,14h164.6c7.7,0,14-6.3,14-14V14
			C192.6,6.3,186.4,0,178.6,0z M178.6,4c1.5,0,3,0.3,4.3,1L96,66.6L9,5.4C10.5,4.5,12.2,4,14,4H178.6z M188.6,124
			c0,5.5-4.5,10-10,10H14c-5.5,0-10-4.5-10-10V14c0-2.1,0.7-4.2,2-5.9l90,63.3l90.2-63.9c1.5,1.8,2.4,4.1,2.4,6.5V124z"/>
	</g>
</g>
</svg>
