<svg xmlns="http://www.w3.org/2000/svg" viewBox="0 0 123.21 139.5"><defs><style>.cls-1{fill:blue;stroke:blue;stroke-miterlimit:10;stroke-width:3px;}</style></defs><title>Asset 23</title><g id="Layer_2" data-name="Layer 2"><g id="Layer_1-2" data-name="Layer 1"><path class="cls-1" d="M3.42,67.92c12.19,0,14.93-6.55,14.93-17.21V24.05C18.35,6.83,27.64,1.5,40.9,1.5h1.21V4.24H41.2c-12.8,0-19.8,5.18-19.8,19.5V48.88c0,12.95-3.21,19.19-12,20.56,9,1.53,12,6.86,12,20.88v25.89c0,15.24,7.76,19,19.8,19h.91V138H40.9c-13.56,0-22.55-4.27-22.55-22.24V88.18c0-14.47-6.1-17.06-14.93-17.06Z"/><path class="cls-1" d="M119.79,71.58c-11.73,0-14.93,6.55-14.93,17.21v26.66c0,17.22-9.29,22.55-22.55,22.55H81.1v-2.74H82c12.8,0,19.8-5.18,19.8-19.5V90.62c0-13,3.2-19.2,12-20.57-9-1.52-12-6.85-12-20.87V23.28c0-15.23-7.77-19-19.8-19H81.1V1.5h1.21c13.56,0,22.55,4.27,22.55,22.24V51.32c0,14.47,6.25,17.21,14.93,17.06Z"/></g></g></svg>