<?xml version="1.0" encoding="utf-8"?>
<!-- Generator: Adobe Illustrator 22.0.1, SVG Export Plug-In . SVG Version: 6.00 Build 0)  -->
<svg version="1.1" id="Layer_1" xmlns="http://www.w3.org/2000/svg" xmlns:xlink="http://www.w3.org/1999/xlink" x="0px" y="0px"
	 viewBox="0 0 139.6 136.2" style="enable-background:new 0 0 139.6 136.2;" xml:space="preserve">
<style type="text/css">
	.st0{fill:#282828;}
</style>
<title>Asset 18</title>
<g id="Layer_2_1_">
	<g id="Layer_1-2">
		<path class="st0" d="M90,136.2c-1.3,0-2.5-0.4-3.5-1.2c-1.2-1-1.9-2.6-1.8-4.1c0-0.8,0-2,0-3.8c0-3.5,0-8.8,0-14.8
			c0-7-2.8-10.1-3.9-11.1l-3.3-2.9l4.4-0.5c14.5-1.6,29.2-6.6,29.2-31.6c0.1-6.3-2.2-12.3-6.5-16.9l-0.8-0.9l0.5-1.1
			c0.5-1.2,2.6-7.2-0.3-15.4c-1.9,0-7.1,0.6-16.2,6.8l-0.7,0.5l-0.9-0.2c-10.8-2.9-22.2-2.9-32.9,0l-0.9,0.2l-0.7-0.5
			c-9-6.1-14.2-6.8-16.2-6.8c-2.9,8.3-0.8,14.3-0.3,15.4l0.5,1.1l-0.8,0.9c-4.3,4.6-6.6,10.6-6.5,16.9c0,24.9,14.8,30,29.2,31.6
			l4.4,0.5l-3.3,2.9c-1.1,1-3,3.2-3.7,7.9l-0.2,1.1l-1,0.4c-3.4,1.5-15.2,5.6-22.2-6.4c-0.1-0.1-3.2-5.6-8.8-6h-0.1
			c0.2,0.2,0.4,0.3,0.7,0.5c1,0.5,5.3,3.2,8.3,10.9v0.1c0.1,0.4,3.8,10.4,20.6,6.7l2.3-0.5v2.4c0,3,0,6,0.1,8.3c0,2,0,3.6,0,4.3
			c0.1,1.5-0.5,3.1-1.7,4.1c-1.4,1.1-3.3,1.5-5.1,1.1l-0.3-0.1C11.2,123.8-8.5,84.3,3.6,47.7S55.4-8.6,91.9,3.6s56.3,51.7,44.1,88.3
			C129,112.7,112.7,129,91.9,136l-0.2,0.1C91.1,136.2,90.6,136.2,90,136.2z M85.8,101.2c1.9,3.4,2.9,7.2,2.8,11.1
			c0,6.1,0,11.3-0.1,14.8c0,1.7,0,3,0,3.8c0,0.4,0.2,0.8,0.5,1.1c0.5,0.3,1.2,0.4,1.8,0.2c34.5-11.6,53.1-49,41.5-83.5
			S83.3-4.3,48.8,7.3s-53.1,49-41.5,83.5c6.6,19.5,21.9,34.9,41.5,41.5c0.6,0.2,1.2,0.1,1.8-0.2c0.3-0.3,0.5-0.7,0.5-1.1
			c0-0.8,0-2.3,0-4.3c0-1.7,0-3.8,0-6c-17.5,2.8-22.3-8.4-22.7-9.6l0,0c-2.7-6.9-6.5-8.9-6.6-8.9l-0.2-0.2c-1.2-0.8-4.1-2.8-3.3-5.3
			c0.7-2.2,3.7-2.4,4.9-2.4h0.1c7.8,0.6,11.8,7.7,12,8c4.7,8,11.9,6.9,16.3,5.2c0.4-2.2,1.2-4.3,2.3-6.2c-13.4-2.2-29.1-8.8-29.1-35
			c-0.1-6.8,2.3-13.4,6.7-18.6c-1-3-2.3-9.7,1.1-18.3l0.3-0.9l0.9-0.3c0.7-0.2,6.7-1.8,19.6,6.7c10.9-2.8,22.4-2.8,33.3,0
			c12.7-8.5,18.8-6.9,19.5-6.7l0.9,0.3l0.3,0.9c3.4,8.6,2.1,15.3,1.1,18.3c4.4,5.2,6.8,11.8,6.7,18.6C115,92.4,99.3,99,85.8,101.2
			L85.8,101.2z"/>
	</g>
</g>
</svg>
