<svg xmlns="http://www.w3.org/2000/svg" viewBox="0 0 143 143"><defs><style>.cls-1{isolation:isolate;}.cls-2{opacity:0.4;}.cls-3{fill:blue;}.cls-4{opacity:0.75;mix-blend-mode:hard-light;}.cls-5{fill:aqua;}.cls-6,.cls-7{fill:none;stroke-miterlimit:10;stroke-width:5px;}.cls-6{stroke:aqua;}.cls-7{stroke:blue;}</style></defs><title>Asset 25</title><g class="cls-1"><g id="Layer_2" data-name="Layer 2"><g id="Layer_1-2" data-name="Layer 1"><path class="cls-3" d="M72,36.5A37.5,37.5,0,1,0,109.5,74,37.54,37.54,0,0,0,72,36.5Zm0,66A28.5,28.5,0,1,1,100.5,74,28.54,28.54,0,0,1,72,102.5Z"/><g class="cls-4"><circle class="cls-5" cx="114.75" cy="29.61" r="7.01"/><circle class="cls-6" cx="114.75" cy="29.61" r="7.01"/></g><circle class="cls-3" cx="114.75" cy="29.61" r="7.01"/><circle class="cls-7" cx="114.75" cy="29.61" r="7.01"/><g class="cls-4"><path class="cls-5" d="M119.66,2.5H23.34A20.87,20.87,0,0,0,2.5,23.34v96.32A20.87,20.87,0,0,0,23.34,140.5h96.32a20.87,20.87,0,0,0,20.84-20.84V23.34A20.87,20.87,0,0,0,119.66,2.5ZM136.5,119.66a16.85,16.85,0,0,1-16.84,16.84H23.34A16.85,16.85,0,0,1,6.5,119.66V23.34A16.85,16.85,0,0,1,23.34,6.5h96.32A16.85,16.85,0,0,1,136.5,23.34Z"/><path class="cls-6" d="M119.66,2.5H23.34A20.87,20.87,0,0,0,2.5,23.34v96.32A20.87,20.87,0,0,0,23.34,140.5h96.32a20.87,20.87,0,0,0,20.84-20.84V23.34A20.87,20.87,0,0,0,119.66,2.5ZM136.5,119.66a16.85,16.85,0,0,1-16.84,16.84H23.34A16.85,16.85,0,0,1,6.5,119.66V23.34A16.85,16.85,0,0,1,23.34,6.5h96.32A16.85,16.85,0,0,1,136.5,23.34Z"/></g><path class="cls-3" d="M119.66,2.5H23.34A20.87,20.87,0,0,0,2.5,23.34v96.32A20.87,20.87,0,0,0,23.34,140.5h96.32a20.87,20.87,0,0,0,20.84-20.84V23.34A20.87,20.87,0,0,0,119.66,2.5ZM136.5,119.66a16.85,16.85,0,0,1-16.84,16.84H23.34A16.85,16.85,0,0,1,6.5,119.66V23.34A16.85,16.85,0,0,1,23.34,6.5h96.32A16.85,16.85,0,0,1,136.5,23.34Z"/><path class="cls-7" d="M119.66,2.5H23.34A20.87,20.87,0,0,0,2.5,23.34v96.32A20.87,20.87,0,0,0,23.34,140.5h96.32a20.87,20.87,0,0,0,20.84-20.84V23.34A20.87,20.87,0,0,0,119.66,2.5ZM136.5,119.66a16.85,16.85,0,0,1-16.84,16.84H23.34A16.85,16.85,0,0,1,6.5,119.66V23.34A16.85,16.85,0,0,1,23.34,6.5h96.32A16.85,16.85,0,0,1,136.5,23.34Z"/></g></g></g></svg>