<svg xmlns="http://www.w3.org/2000/svg" viewBox="0 0 197.63 143"><defs><style>.cls-1{fill:red;stroke:red;stroke-miterlimit:10;stroke-width:5px;}</style></defs><title>Asset 26</title><g id="Layer_2" data-name="Layer 2"><g id="Layer_1-2" data-name="Layer 1"><path class="cls-1" d="M181.13,2.5H16.5a14,14,0,0,0-14,14v110a14,14,0,0,0,14,14H181.13a14,14,0,0,0,14-14V16.5A14,14,0,0,0,181.13,2.5ZM16.5,6.5H181.13a9.93,9.93,0,0,1,4.29,1L98.5,69.05,11.5,7.87A10,10,0,0,1,16.5,6.5Zm174.63,120a10,10,0,0,1-10,10H16.5a10,10,0,0,1-10-10V16.5a9.91,9.91,0,0,1,1.95-5.89L98.5,74,188.74,10a9.93,9.93,0,0,1,2.39,6.47Z"/></g></g></svg>