<svg xmlns="http://www.w3.org/2000/svg" viewBox="0 0 195.63 141"><defs><style>.cls-1{fill:red;stroke:red;stroke-miterlimit:10;stroke-width:3px;}</style></defs><title>Asset 22</title><g id="Layer_2" data-name="Layer 2"><g id="Layer_1-2" data-name="Layer 1"><path class="cls-1" d="M180.13,1.5H15.5a14,14,0,0,0-14,14v110a14,14,0,0,0,14,14H180.13a14,14,0,0,0,14-14V15.5A14,14,0,0,0,180.13,1.5Zm0,4a9.93,9.93,0,0,1,4.29,1L97.5,68.05,10.5,6.87a10,10,0,0,1,5-1.37Zm10,120a10,10,0,0,1-10,10H15.5a10,10,0,0,1-10-10V15.5a9.91,9.91,0,0,1,2-5.89L97.5,73,187.74,9a9.93,9.93,0,0,1,2.39,6.47Z"/></g></g></svg>