<svg xmlns="http://www.w3.org/2000/svg" viewBox="0 0 182.24 147.14"><defs><style>.cls-1{fill:none;stroke:#25c69a;stroke-linecap:round;stroke-miterlimit:10;stroke-width:7px;}</style></defs><title>menu</title><g id="Layer_2" data-name="Layer 2"><g id="Layer_1-2" data-name="Layer 1"><path class="cls-1" d="M178.49,117.59c0,14.39-39.12,26-87.37,26S3.75,132,3.75,117.59"/><path class="cls-1" d="M3.75,29.55c0-14.39,39.12-26,87.37-26s87.37,11.66,87.37,26.05"/><line class="cls-1" x1="3.5" y1="44.82" x2="178.74" y2="55.27"/><line class="cls-1" x1="5.85" y1="102.09" x2="176.38" y2="102.09"/><path class="cls-1" d="M11.94,70.21c-.29,4.92,3.9,9.16,9.36,9.49s10.13-3.4,10.42-8.32"/><path class="cls-1" d="M51.5,72.55c.3-4.92-3.9-9.17-9.36-9.49S32,66.46,31.72,71.38"/><path class="cls-1" d="M51.44,70.91c-.29,4.92,3.9,9.16,9.36,9.49S70.93,77,71.22,72.08"/><path class="cls-1" d="M91,73.25c.29-4.92-3.9-9.17-9.36-9.49s-10.13,3.4-10.42,8.32"/><path class="cls-1" d="M91.23,72.89c-.29,4.92,3.91,9.17,9.37,9.49S110.73,79,111,74.06"/><path class="cls-1" d="M130.8,75.23c.29-4.91-3.9-9.16-9.37-9.48s-10.12,3.4-10.41,8.31"/><path class="cls-1" d="M130.73,73.59c-.29,4.92,3.9,9.17,9.37,9.49s10.12-3.4,10.41-8.32"/><path class="cls-1" d="M170.3,75.93c.29-4.91-3.91-9.16-9.37-9.48s-10.13,3.4-10.42,8.31"/></g></g></svg>