<?xml version="1.0" encoding="utf-8"?>
<!-- Generator: Adobe Illustrator 22.0.1, SVG Export Plug-In . SVG Version: 6.00 Build 0)  -->
<svg version="1.1" id="Layer_1" xmlns="http://www.w3.org/2000/svg" xmlns:xlink="http://www.w3.org/1999/xlink" x="0px" y="0px"
	 viewBox="0 0 118.4 136.5" style="enable-background:new 0 0 118.4 136.5;" xml:space="preserve">
<style type="text/css">
	.st0{fill:#282828;}
</style>
<title>Asset 21</title>
<g id="Layer_2_1_">
	<g id="Layer_1-2">
		<path class="st0" d="M0,66.4c12.2,0,14.9-6.5,14.9-17.2V22.5C14.9,5.3,24.2,0,37.5,0h1.2v2.7h-0.9C25,2.7,18,7.9,18,22.2v25.1
			c0,13-3.2,19.2-12,20.6c9,1.5,12,6.9,12,20.9v25.9c0,15.2,7.8,19,19.8,19h0.9v2.7h-1.2c-13.6,0-22.5-4.3-22.5-22.2V86.7
			c0-14.5-6.1-17.1-14.9-17.1V66.4z"/>
		<path class="st0" d="M118.4,70.1c-11.7,0-14.9,6.6-14.9,17.2V114c0,17.2-9.3,22.6-22.5,22.6h-1.2v-2.7h0.9
			c12.8,0,19.8-5.2,19.8-19.5V89.1c0-13,3.2-19.2,12-20.6c-9-1.5-12-6.8-12-20.9V21.8c0-15.2-7.8-19-19.8-19h-0.9V0h1.2
			c13.6,0,22.5,4.3,22.5,22.2v27.6c0,14.5,6.2,17.2,14.9,17.1V70.1z"/>
	</g>
</g>
</svg>
