<svg xmlns="http://www.w3.org/2000/svg" viewBox="0 0 143.55 140.2"><defs><style>.cls-1{fill:red;stroke:red;stroke-miterlimit:10;stroke-width:4px;}</style></defs><title>Asset 28</title><g id="Layer_2" data-name="Layer 2"><g id="Layer_1-2" data-name="Layer 1"><path class="cls-1" d="M92,138.2A5.36,5.36,0,0,1,88.52,137a5.3,5.3,0,0,1-1.85-4.14c0-.75,0-2,0-3.79,0-3.5,0-8.77,0-14.83,0-7-2.75-10.07-3.93-11.1l-3.35-2.9,4.41-.49c14.46-1.61,29.25-6.61,29.25-31.55a24.29,24.29,0,0,0-6.47-16.9l-.84-.9.47-1.14c.48-1.16,2.62-7.17-.27-15.44-1.88,0-7.09.64-16.15,6.78l-.74.5-.87-.24a62.44,62.44,0,0,0-32.93,0l-.87.24-.74-.5c-9-6.12-14.23-6.79-16.17-6.77-2.89,8.26-.75,14.27-.27,15.43l.47,1.13-.83.91a24.33,24.33,0,0,0-6.48,16.9c0,24.92,14.75,30,29.19,31.61l4.36.49-3.31,2.89c-1.09,1-3,3.24-3.66,7.88l-.15,1.06-1,.44c-3.43,1.54-15.18,5.62-22.2-6.43-.06-.09-3.2-5.6-8.8-6h-.11c.2.16.44.33.72.52,1,.52,5.31,3.21,8.33,10.88l0,.11c.14.41,3.8,10.36,20.6,6.71l2.34-.51v2.4c0,3,0,6,.06,8.34,0,2,0,3.55,0,4.3A5.29,5.29,0,0,1,55.06,137,5.9,5.9,0,0,1,50,138.06l-.26-.07a69.76,69.76,0,1,1,44.16,0l-.25.06A7.71,7.71,0,0,1,92,138.2Zm-4.23-35a21.14,21.14,0,0,1,2.81,11.11c0,6.07,0,11.35-.06,14.85,0,1.73,0,3,0,3.77A1.54,1.54,0,0,0,91,134a2.3,2.3,0,0,0,1.79.22,65.9,65.9,0,1,0-42,0,2.3,2.3,0,0,0,1.77-.25,1.5,1.5,0,0,0,.45-1.13c0-.75,0-2.28,0-4.26,0-1.74,0-3.83,0-6-17.48,2.79-22.27-8.42-22.73-9.63h0c-2.72-6.9-6.54-8.87-6.58-8.89l-.25-.15c-1.23-.84-4.11-2.81-3.34-5.26.7-2.21,3.67-2.39,4.93-2.4h.11c7.77.55,11.79,7.69,12,8,4.69,8,11.88,6.93,16.3,5.2a18.54,18.54,0,0,1,2.34-6.25c-13.42-2.15-29.14-8.84-29.14-35a28,28,0,0,1,6.72-18.62c-1-3-2.31-9.69,1.06-18.25l.34-.85.88-.28c.66-.21,6.74-1.79,19.59,6.7a66.4,66.4,0,0,1,33.29,0c12.83-8.49,18.91-6.92,19.57-6.7l.87.28.34.85c3.38,8.56,2.05,15.25,1.08,18.25A28,28,0,0,1,117,68.23C117,94.38,101.26,101,87.81,103.16Z"/></g></g></svg>