<svg xmlns="http://www.w3.org/2000/svg" viewBox="0 0 378.9 165.5"><title>Asset 1</title><g id="Layer_2" data-name="Layer 2"><g id="Layer_1-2" data-name="Layer 1"><path d="M70.41,88.86C50,78.37,26.86,71.71,8.7,57.3c-17.88-14.19-5-32.06,9.83-41.86,16.92-11.21,40-13.69,57-1.35,7,5.08,13.35,10.76,17.61,18.46a11.73,11.73,0,0,0,1.4,1.65C99.47,24.92,108.3,2.45,120,.08c10.3-2.08,11.16,36,11.71,42.87,2.16,27.43,4.14,54.87,8.89,82a140.68,140.68,0,0,0,5.06,18.72,20.54,20.54,0,0,0,4.14,6.57c2.29,2.69,4.88,2.65,6.69-.34a44.72,44.72,0,0,0,4.43-10c4.48-14.38,6.19-29.27,7-44.2,1-17.12,1.27-34.27,1.92-51.4a55.62,55.62,0,0,1,.88-6l1.3-.47c4.45,5.74,5.5,13.12,7.43,20,1.66,5.94,3.16,11.93,5.05,17.8,2.42,7.47,15.7,29.71,22.59,14,1.88-4.28,4.54-10.76,2.13-15.15-7.29-13.28-11.64-27.26-10.5-42.63.22-3,.57-7.16,4.15-7.88,5.45-1.09,7.31,6.94,8.39,10.48,3.74,12.32,1.5,26.2,1.47,38.91,0,5.77,6.88,10.27,11.25,12.89C235.08,93,243.29,78,247.36,69.81c3.21-6.43,5.23-13.43,8-20.1a113.45,113.45,0,0,1,5.51-11.24c2-3.56,1.9-5.81-1.41-9.69a24.25,24.25,0,0,0-2.05,3.73c-2.2,6.64-4.16,13.38-6.51,20-1.5,4.21-8.45,11-9.64,2.41C240,46,240.06,12.33,257.61,18.44c5.25,1.82,10,4.8,15.18,6.53,4.4,1.47,8.54,1.91,7,8.38a53.42,53.42,0,0,1-8.55-5.58c-4,4.78-6.4,6.55-5.15,12.77,1.33,6.57,3.05,13.1,4.67,19.61A40.47,40.47,0,0,0,273,66.34c6.36,14.54,19,19.8,33.68,13.78,12.28-5,22.9-13.44,33.74-20.93Q358.2,46.91,376,34.54a5,5,0,0,1,2.95-1.09c-1.12.92-2.19,1.91-3.37,2.75-18.78,13.46-37.48,27-56.42,40.25-6.77,4.74-14.25,8.34-22.83,8.67-9.91.38-17.26-4.09-22.69-12-4.35-6.37-5.82-13.83-7.57-21.15-1-4.21-1.83-8.48-2.93-13.66A32.17,32.17,0,0,0,261,41.55c-5.2,11.61-9.81,23.52-15.3,35a34.85,34.85,0,0,1-5.43,7.64c-9.55,10.89-19.36,2.8-27.88-4.46-1.05,3.27-1.89,6.69-3.24,9.9-3.72,8.9-10.11,10-17.07,3.25C180.1,81.2,178,60.35,173.91,45c-.28-1.06-.7-2.08-1-3.11L172,42c-.09,1.15-.21,2.3-.26,3.45-1,20-1.46,40.14-3.06,60.14-.92,11.41-3.42,22.71-5.64,34-.76,3.82-2.6,7.51-4.42,11-2.34,4.52-6.79,5.15-10.22,1.46-9.15-9.87-10.29-24.85-12.28-37.51-4.56-28.88-5.42-58.09-8.23-87.13a194.48,194.48,0,0,0-3.28-21c-1-5.05-3.23-5.76-6.8-2.17-8.92,9-19.29,21.73-21.24,34.47l-1.09-.69a5.53,5.53,0,0,0-.52.82C88,54.31,81.09,69.88,74.07,85.41c-1,2.21-.45,3.22,1.56,4.39,10.08,5.84,19.6,12.45,27.74,20.87,6.82,7,11.92,15.08,13.64,24.93,1.83,10.46-1.36,17.32-10.43,22.68C93.88,165.79,68,171.42,60.79,154c-8.37-20.1,2.14-42.41,8.27-61.5C69.41,91.43,69.85,90.38,70.41,88.86Zm.85-2.36c.26-.54.63-1.27,1-2,6.41-14.42,12.61-28.94,19.35-43.2,2-4.12,1.91-7.09-.84-10.62C76.61,12.45,56.88,2.24,33.73,9.45,16.58,14.79-12.09,36.61,8.25,55A72,72,0,0,0,27.59,67.57C42,73.91,56.45,80.09,71.26,86.5Zm1.24,3.66c-3.94,7.41-11.56,32.12-12.14,39.66-.62,8.06-.68,16.12,2.44,23.8,2.09,5.16,6,8.44,11.43,9.18,12,1.64,23.25-.54,33.48-7.36a16.19,16.19,0,0,0,7.68-14.22c.06-9.12-3.58-16.87-9-23.89C97.42,105.75,85,97.52,72.5,90.16ZM269.9,26.3c-8.53-5.71-19.51-11.53-24.55,1.6-3.17,8.25-3.53,16.9-2.74,25.62.67,7.31,5.31,2.22,7-1.45,2.42-5.18,3.47-11.3,5.18-16.74,2.52-8,5.17-10.65,9.71-2.71ZM211,72.7a6.31,6.31,0,0,0,.34-1.43c0-15.3,1.4-29.28-5-43.45-2-4.35-4.59-.34-5.55,1.58-1.45,2.92-.34,9.93-.13,13.15C201.38,53.39,205.48,63.19,211,72.7Zm61.36-45.41,6.11,4.57C278.08,27.91,276.58,26.67,272.37,27.29Z"/></g></g></svg>