<svg xmlns="http://www.w3.org/2000/svg" viewBox="0 0 133.2 143.36"><defs><style>.cls-1{fill:blue;}</style></defs><title>Asset 27</title><g id="Layer_2" data-name="Layer 2"><g id="Layer_1-2" data-name="Layer 1"><path class="cls-1" d="M0,66.94c15.32,0,17.53-7.74,17.53-18.63V27c0-18,10.73-27,26.52-27h2.68V8.52H44.05c-11.21,0-16.26,6.64-16.26,18.64v21c0,13-4.74,21-14.69,23.21C23.21,73.89,27.79,81,27.79,94.89v20.68c0,13,7.1,19.26,16.57,19.26h2.37v8.53H44.05c-13.58,0-26.52-7.42-26.52-27.16V94.57C17.53,84.47,16,76.1,0,76.1Z"/><path class="cls-1" d="M133.2,76.41c-15.32,0-17.53,7.74-17.53,18.48v21.47c0,18-10.73,27-26.52,27H86.46v-8.53h2.69c11.21,0,16.26-6.63,16.26-18.79V95.2c0-12.94,4.74-21.15,14.68-23.21-10.1-2.68-14.68-9.63-14.68-23.52V27.79c0-12.95-7.1-19.27-16.58-19.27H86.46V0h2.69c13.42,0,26.52,7.42,26.52,27.16V48.78c0,10.11,1.58,18.32,17.53,18.48Z"/></g></g></svg>