<svg xmlns="http://www.w3.org/2000/svg" viewBox="0 0 118.37 136.5"><defs><style>.cls-1{fill:blue;}</style></defs><title>Asset 21</title><g id="Layer_2" data-name="Layer 2"><g id="Layer_1-2" data-name="Layer 1"><path class="cls-1" d="M0,66.42c12.19,0,14.93-6.55,14.93-17.21V22.55C14.93,5.33,24.22,0,37.48,0H38.7V2.74h-.92C25,2.74,18,7.92,18,22.24V47.38c0,12.95-3.2,19.19-12,20.56,9,1.53,12,6.86,12,20.88v25.89c0,15.24,7.77,19,19.8,19h.92v2.74H37.48c-13.56,0-22.55-4.27-22.55-22.24V86.68C14.93,72.21,8.84,69.62,0,69.62Z"/><path class="cls-1" d="M118.37,70.08c-11.73,0-14.93,6.55-14.93,17.21V114c0,17.22-9.29,22.55-22.54,22.55H79.68v-2.74h.91c12.8,0,19.81-5.18,19.81-19.5V89.12c0-13,3.19-19.2,12-20.57-9-1.52-12-6.85-12-20.87V21.78c0-15.23-7.77-19-19.81-19h-.91V0H80.9c13.55,0,22.54,4.27,22.54,22.24V49.82c0,14.47,6.25,17.21,14.93,17.06Z"/></g></g></svg>