<svg xmlns="http://www.w3.org/2000/svg" viewBox="0 0 138 138"><defs><style>.cls-1{isolation:isolate;}.cls-2{opacity:0.4;}.cls-3{fill:blue;}.cls-4{opacity:0.75;mix-blend-mode:hard-light;}.cls-5{fill:aqua;}</style></defs><title>Asset 17</title><g class="cls-1"><g id="Layer_2" data-name="Layer 2"><g id="Layer_1-2" data-name="Layer 1"><path class="cls-3" d="M69.5,106.5a35,35,0,1,1,35-35A35,35,0,0,1,69.5,106.5Zm0-66a31,31,0,1,0,31,31A31,31,0,0,0,69.5,40.5Z"/><g class="cls-4"><circle class="cls-5" cx="112.25" cy="26.25" r="5.25"/></g><circle class="cls-3" cx="112.25" cy="26.25" r="5.25"/><g class="cls-4"><path class="cls-5" d="M117.16,0H20.84A20.87,20.87,0,0,0,0,20.84v96.32A20.87,20.87,0,0,0,20.84,138h96.32A20.87,20.87,0,0,0,138,117.16V20.84A20.87,20.87,0,0,0,117.16,0ZM134,117.16A16.85,16.85,0,0,1,117.16,134H20.84A16.85,16.85,0,0,1,4,117.16V20.84A16.85,16.85,0,0,1,20.84,4h96.32A16.85,16.85,0,0,1,134,20.84Z"/></g><path class="cls-3" d="M117.16,0H20.84A20.87,20.87,0,0,0,0,20.84v96.32A20.87,20.87,0,0,0,20.84,138h96.32A20.87,20.87,0,0,0,138,117.16V20.84A20.87,20.87,0,0,0,117.16,0ZM134,117.16A16.85,16.85,0,0,1,117.16,134H20.84A16.85,16.85,0,0,1,4,117.16V20.84A16.85,16.85,0,0,1,20.84,4h96.32A16.85,16.85,0,0,1,134,20.84Z"/></g></g></g></svg>