<svg xmlns="http://www.w3.org/2000/svg" viewBox="0 0 140 140"><defs><style>.cls-1{isolation:isolate;}.cls-2{opacity:0.4;}.cls-3,.cls-7{fill:blue;}.cls-3,.cls-8{stroke:blue;}.cls-3,.cls-6,.cls-8{stroke-miterlimit:10;}.cls-3{stroke-width:3px;}.cls-4{opacity:0.75;mix-blend-mode:hard-light;}.cls-5{fill:aqua;}.cls-6,.cls-8{fill:none;stroke-width:2px;}.cls-6{stroke:aqua;}</style></defs><title>Asset 21</title><g class="cls-1"><g id="Layer_2" data-name="Layer 2"><g id="Layer_1-2" data-name="Layer 1"><path class="cls-3" d="M70.5,107.5a35,35,0,1,1,35-35A35,35,0,0,1,70.5,107.5Zm0-66a31,31,0,1,0,31,31A31,31,0,0,0,70.5,41.5Z"/><g class="cls-4"><circle class="cls-5" cx="113.25" cy="28.11" r="7.01"/><circle class="cls-6" cx="113.25" cy="28.11" r="7.01"/></g><circle class="cls-7" cx="113.25" cy="28.11" r="7.01"/><circle class="cls-8" cx="113.25" cy="28.11" r="7.01"/><g class="cls-4"><path class="cls-5" d="M118.16,1H21.84A20.87,20.87,0,0,0,1,21.84v96.32A20.87,20.87,0,0,0,21.84,139h96.32A20.87,20.87,0,0,0,139,118.16V21.84A20.87,20.87,0,0,0,118.16,1ZM135,118.16A16.85,16.85,0,0,1,118.16,135H21.84A16.85,16.85,0,0,1,5,118.16V21.84A16.85,16.85,0,0,1,21.84,5h96.32A16.85,16.85,0,0,1,135,21.84Z"/><path class="cls-6" d="M118.16,1H21.84A20.87,20.87,0,0,0,1,21.84v96.32A20.87,20.87,0,0,0,21.84,139h96.32A20.87,20.87,0,0,0,139,118.16V21.84A20.87,20.87,0,0,0,118.16,1ZM135,118.16A16.85,16.85,0,0,1,118.16,135H21.84A16.85,16.85,0,0,1,5,118.16V21.84A16.85,16.85,0,0,1,21.84,5h96.32A16.85,16.85,0,0,1,135,21.84Z"/></g><path class="cls-7" d="M118.16,1H21.84A20.87,20.87,0,0,0,1,21.84v96.32A20.87,20.87,0,0,0,21.84,139h96.32A20.87,20.87,0,0,0,139,118.16V21.84A20.87,20.87,0,0,0,118.16,1ZM135,118.16A16.85,16.85,0,0,1,118.16,135H21.84A16.85,16.85,0,0,1,5,118.16V21.84A16.85,16.85,0,0,1,21.84,5h96.32A16.85,16.85,0,0,1,135,21.84Z"/><path class="cls-8" d="M118.16,1H21.84A20.87,20.87,0,0,0,1,21.84v96.32A20.87,20.87,0,0,0,21.84,139h96.32A20.87,20.87,0,0,0,139,118.16V21.84A20.87,20.87,0,0,0,118.16,1ZM135,118.16A16.85,16.85,0,0,1,118.16,135H21.84A16.85,16.85,0,0,1,5,118.16V21.84A16.85,16.85,0,0,1,21.84,5h96.32A16.85,16.85,0,0,1,135,21.84Z"/></g></g></g></svg>