<svg xmlns="http://www.w3.org/2000/svg" viewBox="0 0 192.63 138"><defs><style>.cls-1{fill:red;}</style></defs><title>Asset 19</title><g id="Layer_2" data-name="Layer 2"><g id="Layer_1-2" data-name="Layer 1"><path class="cls-1" d="M178.63,0H14A14,14,0,0,0,3.79,4.45,13.88,13.88,0,0,0,0,14V124a14,14,0,0,0,14,14H178.63a14,14,0,0,0,14-14V14A14,14,0,0,0,178.63,0Zm0,4a9.93,9.93,0,0,1,4.29,1L96,66.55,9,5.37A10,10,0,0,1,14,4Zm10,120a10,10,0,0,1-10,10H14A10,10,0,0,1,4,124V14A9.91,9.91,0,0,1,6,8.11L96,71.45,186.24,7.53A9.93,9.93,0,0,1,188.63,14Z"/></g></g></svg>